<svg width="978" height="826" viewBox="0 0 978 826" fill="none" xmlns="http://www.w3.org/2000/svg">
<path fill-rule="evenodd" clip-rule="evenodd" d="M249.005 272.189C128.346 294.871 110.689 408.283 143.061 504.683C131.289 513.189 45.9446 516.024 10.6297 606.754C-15.8565 677.636 10.6297 745.684 51.8304 782.543C107.746 833.578 154.832 825.072 246.062 825.072H728.7C819.93 825.072 867.016 833.578 925.875 782.543C1005.33 714.495 996.505 567.06 881.731 518.86C867.016 513.189 840.53 510.354 834.644 504.683C869.959 408.283 849.359 294.871 728.7 272.189C734.586 93.5649 593.326 116.247 590.383 79.3884C587.44 56.706 569.783 5.6706 519.753 0C502.096 68.0472 360.836 96.4002 331.407 110.577C266.663 153.106 249.005 201.306 249.005 272.189ZM322.578 391.271C343.179 391.271 360.836 408.283 360.836 428.13C360.836 447.977 343.179 464.989 322.578 464.989C301.978 464.989 284.32 447.977 284.32 428.13C284.32 408.283 301.978 391.271 322.578 391.271ZM655.127 391.271C675.727 391.271 693.385 408.283 693.385 428.13C693.385 447.977 675.727 464.989 655.127 464.989C634.527 464.989 619.812 447.977 619.812 428.13C619.812 408.283 634.527 391.271 655.127 391.271ZM578.611 535.872C587.44 504.683 634.527 518.86 625.698 550.048C587.44 688.978 381.436 688.978 343.179 550.048C334.35 518.86 384.379 504.683 393.208 535.872C416.751 626.601 552.125 626.601 578.611 535.872Z" fill="url(#paint0_linear_34:232)"/>
<defs>
<linearGradient id="paint0_linear_34:232" x1="-1.14194" y1="413.954" x2="978.847" y2="413.954" gradientUnits="userSpaceOnUse">
<stop stop-color="#F63172"/>
<stop offset="1" stop-color="#FF91BE"/>
</linearGradient>
</defs>
</svg>
