<svg width="403" height="79" viewBox="0 0 403 79" fill="none" xmlns="http://www.w3.org/2000/svg">
<path d="M81.608 40.88C81.464 47.888 77.672 44.048 77.672 47.504C77.672 49.424 79.736 50.24 81.368 50.24C82.76 50.24 84.104 50.192 85.448 50.096C86.792 50.048 88.184 50 89.528 50C90.872 50 92.168 50.048 93.656 50.096C95.144 50.192 96.872 50.24 98.936 50.24C111.08 50.24 116.312 41.84 116.312 32.912C116.312 24.272 111.944 16.016 98.6 16.016H82.952C81.272 16.016 78.488 16.352 78.488 18.56C78.488 21.68 82.088 19.28 81.992 24.224L81.608 40.88ZM93.512 23.888C93.512 22.064 93.656 21.248 95.672 21.248C99.368 21.248 103.592 23.024 103.592 34.256C103.592 39.056 102.536 45.248 96.488 45.248C93.896 45.248 93.512 44.24 93.512 41.792V23.888ZM131.469 50.672C138.525 50.672 146.973 45.872 146.973 38C146.973 32.048 142.173 25.472 133.773 25.472C125.853 25.472 118.317 30.32 118.317 38.912C118.317 46.496 124.365 50.672 131.469 50.672ZM135.933 41.648C135.933 43.184 135.549 44.72 133.725 44.624C130.413 44.432 129.549 37.04 129.357 34.016C129.261 32.624 130.125 31.136 131.709 31.136C134.973 31.136 135.933 39.488 135.933 41.648ZM164.628 34.784C164.628 36.656 163.908 38.528 161.748 38.528C159.3 38.528 158.82 34.544 158.82 32.72C158.82 31.04 159.636 29.264 161.508 29.264C164.196 29.264 164.628 32.816 164.628 34.784ZM155.604 52.4C155.604 52.064 155.748 51.632 156.18 51.632C156.708 51.632 159.3 52.016 160.404 52.016C161.94 52.016 163.812 51.728 164.532 51.728C165.444 51.728 166.404 52.16 166.404 53.168C166.404 55.376 162.804 55.616 161.22 55.616C159.348 55.616 155.604 54.944 155.604 52.4ZM176.628 49.616C176.628 46.736 174.516 43.904 169.524 43.904C167.604 43.904 162.036 44.72 160.548 44.72C159.444 44.72 157.332 44.432 157.332 42.944C157.332 42.176 157.812 41.648 158.628 41.648C159.492 41.648 160.308 41.792 161.124 41.792C166.404 41.792 173.94 39.584 173.94 33.104C173.94 32.624 173.796 32.096 173.796 31.616C173.796 31.088 176.484 29.168 176.484 26.48C176.484 25.568 176.004 24.128 174.9 24.128C174.18 24.128 172.356 26.672 168.708 26.672C167.028 26.672 163.716 25.76 161.268 25.76C156.42 25.76 149.172 28.448 149.172 34.256C149.172 37.808 152.436 40.016 152.436 40.592C152.436 41.264 148.548 42.272 148.548 45.68C148.548 47.792 151.14 49.136 151.14 49.76C151.14 50.48 148.5 50.528 148.5 53.312C148.5 56.384 151.86 59.744 160.74 59.744C172.5 59.744 176.628 53.936 176.628 49.616ZM214.877 26.864C214.877 29.792 213.629 32.192 210.461 32.192C207.869 32.192 208.301 31.088 208.301 30.08V22.88C208.301 21.92 208.253 21.344 210.125 21.344C213.341 21.344 214.877 23.84 214.877 26.864ZM197.261 42.416C197.261 46.352 193.757 44.72 193.757 47.36C193.757 50.48 200.861 50.528 202.877 50.528C205.037 50.528 211.949 50.384 211.949 47.264C211.949 44.48 208.445 46.976 208.301 40.976V38.192C208.301 37.664 208.493 37.424 209.069 37.424C210.365 37.424 211.805 37.664 213.245 37.664C219.917 37.664 225.965 33.824 225.965 26.672C225.965 19.472 219.677 15.68 213.149 15.68C211.133 15.68 206.909 16.352 199.949 16.352C198.749 16.352 197.597 16.256 196.397 16.256C194.909 16.256 192.797 16.688 192.797 18.608C192.797 21.632 197.261 20.048 197.261 23.648V42.416ZM240.641 50.672C247.697 50.672 256.145 45.872 256.145 38C256.145 32.048 251.345 25.472 242.945 25.472C235.025 25.472 227.489 30.32 227.489 38.912C227.489 46.496 233.537 50.672 240.641 50.672ZM245.105 41.648C245.105 43.184 244.721 44.72 242.897 44.624C239.585 44.432 238.721 37.04 238.529 34.016C238.433 32.624 239.297 31.136 240.881 31.136C244.145 31.136 245.105 39.488 245.105 41.648ZM271.016 50.672C278.072 50.672 286.52 45.872 286.52 38C286.52 32.048 281.72 25.472 273.32 25.472C265.4 25.472 257.864 30.32 257.864 38.912C257.864 46.496 263.912 50.672 271.016 50.672ZM275.48 41.648C275.48 43.184 275.096 44.72 273.272 44.624C269.96 44.432 269.096 37.04 268.904 34.016C268.808 32.624 269.672 31.136 271.256 31.136C274.52 31.136 275.48 39.488 275.48 41.648ZM308.255 38.672C308.255 40.976 307.871 44.192 304.895 44.192C303.215 44.192 302.447 43.616 302.447 42.032C302.447 33.296 303.023 32.576 304.751 32.576C307.775 32.576 308.255 36.368 308.255 38.672ZM291.599 43.136C291.599 48.464 291.407 49.856 290.927 50.864C290.063 52.736 288.095 51.92 288.095 54.08C288.095 56.528 293.135 58.88 299.567 58.88C301.439 58.88 305.807 58.544 305.807 55.856C305.807 53.504 302.831 54.656 302.831 51.008C302.831 50.48 302.927 49.472 303.599 49.472C304.031 49.472 306.287 50.672 308.543 50.672C315.551 50.672 320.111 43.808 320.111 37.376C320.111 31.76 316.751 25.472 310.463 25.472C306.527 25.472 303.839 28.064 303.167 28.064C302.687 28.064 302.639 27.392 302.639 27.056C302.639 26 302.447 25.616 301.295 25.616C297.743 25.616 287.855 28.112 287.855 31.376C287.855 34.112 290.447 33.488 291.071 34.112C291.311 34.352 291.599 35.456 291.599 40.496V43.136Z" fill="url(#paint0_linear_7:29)"/>
<g clip-path="url(#clip0_7:29)">
<path fill-rule="evenodd" clip-rule="evenodd" d="M14.7672 20.4842C7.61153 21.8579 6.56436 28.7263 8.48417 34.5645C7.78606 35.0796 2.72473 35.2513 0.630391 40.7461C-0.940364 45.0388 0.630391 49.1599 3.07379 51.3921C6.38983 54.4829 9.18228 53.9678 14.5927 53.9678H43.2153C48.6257 53.9678 51.4182 54.4829 54.9087 51.3921C59.621 47.2711 59.0974 38.3421 52.2908 35.4231C51.4182 35.0796 49.8474 34.9079 49.4983 34.5645C51.5927 28.7263 50.371 21.8579 43.2153 20.4842C43.5644 9.66645 35.187 11.0401 35.0125 8.8079C34.838 7.43421 33.7908 4.34342 30.8238 4C29.7766 8.12106 21.3993 9.83816 19.654 10.6967C15.8144 13.2724 14.7672 16.1915 14.7672 20.4842ZM19.1304 27.6961C20.3521 27.6961 21.3993 28.7263 21.3993 29.9283C21.3993 31.1303 20.3521 32.1605 19.1304 32.1605C17.9087 32.1605 16.8615 31.1303 16.8615 29.9283C16.8615 28.7263 17.9087 27.6961 19.1304 27.6961ZM38.8521 27.6961C40.0738 27.6961 41.121 28.7263 41.121 29.9283C41.121 31.1303 40.0738 32.1605 38.8521 32.1605C37.6304 32.1605 36.7578 31.1303 36.7578 29.9283C36.7578 28.7263 37.6304 27.6961 38.8521 27.6961ZM34.3144 36.4533C34.838 34.5645 37.6304 35.4231 37.1068 37.3119C34.838 45.7257 22.621 45.7257 20.3521 37.3119C19.8285 35.4231 22.7955 34.5645 23.3191 36.4533C24.7153 41.9481 32.7436 41.9481 34.3144 36.4533Z" fill="url(#paint1_linear_7:29)"/>
</g>
<defs>
<linearGradient id="paint0_linear_7:29" x1="74.5" y1="45" x2="347" y2="45" gradientUnits="userSpaceOnUse">
<stop stop-color="#FF86BE"/>
<stop offset="1" stop-color="#FFC7BD"/>
</linearGradient>
<linearGradient id="paint1_linear_7:29" x1="2.93838" y1="29.1824" x2="51.036" y2="29.1824" gradientUnits="userSpaceOnUse">
<stop stop-color="#F53071"/>
<stop offset="1" stop-color="#FF90BD"/>
</linearGradient>
<clipPath id="clip0_7:29">
<rect width="58" height="72" fill="white"/>
</clipPath>
</defs>
</svg>
